<?xml version="1.0" encoding="UTF-8"?>
<svg id="Layer_1" xmlns="http://www.w3.org/2000/svg" version="1.1" viewBox="0 0 1080 1350">
  <!-- Generator: Adobe Illustrator 29.1.0, SVG Export Plug-In . SVG Version: 2.1.0 Build 142)  -->
  <defs>
    <style>
      .st0 {
        fill: #1d1d1b;
      }
    </style>
  </defs>
  <g>
    <path class="st0" d="M336.2,906.1h4.9l22.1,50.5h-7.2l-6.6-14.9h-21l-6.1,14.9h-7.2l21.1-50.5ZM346.5,935.3l-7.9-18.2-7.4,18.2h15.3Z"/>
    <path class="st0" d="M377,956.6v-50.2h12.3c5,0,8.9,1.3,11.8,3.8,2.9,2.5,4.4,5.9,4.4,10.2s-.7,5.4-2.1,7.6c-1.4,2.1-3.5,3.7-6.2,4.8,1.6,1.1,3.1,2.5,4.6,4.3s3.6,5,6.3,9.5c1.7,2.9,3.1,5,4.1,6.4l2.6,3.6h-8.4l-2.1-3.3c0-.1-.2-.3-.4-.6l-1.4-2-2.2-3.7-2.4-3.9c-1.5-2.1-2.8-3.7-4-4.9s-2.3-2.1-3.3-2.6c-1-.5-2.6-.8-4.9-.8h-1.8v21.8h-7ZM386.2,912.5h-2.1v15.8h2.7c3.6,0,6-.3,7.3-.9,1.3-.6,2.4-1.6,3.1-2.8.7-1.3,1.1-2.7,1.1-4.3s-.4-3-1.2-4.3c-.8-1.3-2-2.2-3.5-2.7-1.5-.5-4-.8-7.4-.8Z"/>
    <path class="st0" d="M468.2,944.9v7.9c-5.2,2.9-11.1,4.3-17.9,4.3s-10.2-1.1-14-3.4c-3.8-2.3-6.9-5.4-9.1-9.3-2.2-4-3.3-8.2-3.3-12.8,0-7.3,2.6-13.4,7.7-18.4,5.1-5,11.4-7.5,18.9-7.5s10.9,1.4,17.2,4.1v7.7c-5.8-3.4-11.4-5-16.9-5s-10.3,1.8-14,5.4c-3.7,3.6-5.6,8.2-5.6,13.6s1.8,10,5.5,13.6c3.7,3.5,8.3,5.3,14,5.3s11.8-1.9,17.5-5.6Z"/>
    <path class="st0" d="M520.2,906.4h7v50.2h-7v-21.8h-27.6v21.8h-7v-50.2h7v21.7h27.6v-21.7Z"/>
    <path class="st0" d="M546.8,906.4h7v50.2h-7v-50.2Z"/>
    <path class="st0" d="M568.2,906.3h41.1v6.4h-17.1v43.9h-7.1v-43.9h-16.9v-6.4Z"/>
    <path class="st0" d="M623.6,906.4h27.9v6.4h-20.8v15.3h20.1v6.4h-20.1v15.6h21.5v6.4h-28.6v-50.1Z"/>
    <path class="st0" d="M709.6,944.9v7.9c-5.2,2.9-11.1,4.3-17.9,4.3s-10.2-1.1-14-3.4c-3.8-2.3-6.9-5.4-9.1-9.3-2.2-4-3.3-8.2-3.3-12.8,0-7.3,2.6-13.4,7.7-18.4s11.4-7.5,18.9-7.5,10.9,1.4,17.2,4.1v7.7c-5.8-3.4-11.4-5-16.9-5s-10.3,1.8-14,5.4c-3.7,3.6-5.6,8.2-5.6,13.6s1.8,10,5.5,13.6,8.3,5.3,14,5.3,11.8-1.9,17.5-5.6Z"/>
    <path class="st0" d="M722.6,906.3h41.1v6.4h-17.1v43.9h-7.1v-43.9h-16.9v-6.4Z"/>
  </g>
  <path class="st0" d="M354.6,460.9l159.7,159.7-159.7,159.5v-319.2M319.6,376.4v488.2l59.7-59.6,159.7-159.5,24.8-24.7-24.8-24.8-159.7-159.7-59.7-59.7h0Z"/>
  <polygon class="st0" points="721.8 462.8 721.8 828.1 754.1 860.4 756.8 860.4 756.8 378.3 559.7 575.4 584.4 600.2 721.8 462.8"/>
</svg>