<?xml version="1.0" encoding="UTF-8"?>
<svg version="1.1" xmlns="http://www.w3.org/2000/svg" width="2200" height="1700">
<path d="M0 0 C726 0 1452 0 2200 0 C2200 561 2200 1122 2200 1700 C1474 1700 748 1700 0 1700 C0 1139 0 578 0 0 Z " fill="#FEFEFE" transform="translate(0,0)"/>
<path d="M0 0 C5.67949199 4.72226859 10.90841065 9.77806419 16.11303711 15.01538086 C16.99853745 15.90234146 17.88403778 16.78930206 18.79637146 17.70314026 C20.70991168 19.62047225 22.62252677 21.53867561 24.5336132 23.45844841 C27.56222778 26.50068497 30.59474195 29.53901471 33.62782288 32.57679749 C40.61359392 39.57456794 47.59433109 46.57735292 54.57500458 53.58020782 C60.97490434 60.00034296 67.37589019 66.41938543 73.78095251 72.83437067 C76.78913481 75.84750272 79.79486962 78.86304785 82.79868495 81.8805331 C85.1163039 84.20743499 87.43721378 86.53105113 89.75756836 88.85522461 C90.98833099 90.09373672 90.98833099 90.09373672 92.24395752 91.35726929 C93.40643257 92.51985008 93.40643257 92.51985008 94.59239197 93.70591736 C95.25436553 94.37011153 95.91633909 95.03430571 96.59837246 95.71862698 C98.62122033 97.64018662 100.68111399 99.46871698 102.7916193 101.2916193 C106.94795972 104.9075577 110.85778896 108.723474 114.74169922 112.62817383 C115.47792952 113.36425527 116.21415981 114.1003367 116.97270012 114.85872364 C119.41907846 117.30579195 121.8618718 119.75640689 124.3046875 122.20703125 C126.06604085 123.97030537 127.8276232 125.73335077 129.5894165 127.4961853 C133.3732428 131.28316531 137.15556827 135.07163467 140.93658447 138.86141968 C146.41138553 144.34882333 151.88946638 149.83294359 157.36842608 155.31619465 C166.27016499 164.22498869 175.17003323 173.13564883 184.06835938 182.04785156 C184.60004754 182.58036754 185.1317357 183.11288351 185.67953563 183.66153634 C189.9929988 187.98174348 194.30637106 192.30204138 198.61973953 196.62234306 C202.39033072 200.3989873 206.16095822 204.17559527 209.93164062 207.95214844 C210.46267482 208.48401075 210.99370901 209.01587307 211.54083514 209.56385243 C220.40767824 218.44440006 229.27649924 227.32296987 238.14672279 236.20014095 C243.60933304 241.66722082 249.07016328 247.13606706 254.52867556 252.60723853 C258.71350756 256.80152284 262.90090271 260.99324168 267.08922577 265.18404007 C268.80252189 266.89920455 270.51495515 268.61523145 272.22644806 270.33219528 C274.56807693 272.68107178 276.91280864 275.02680827 279.25830078 277.37182617 C279.92991179 278.04703214 280.60152279 278.7222381 281.29348564 279.41790485 C284.44155308 282.55919094 287.63447935 285.59186596 291 288.5 C295.09467312 292.03819201 298.92658614 295.79263943 302.74169922 299.62817383 C303.47792952 300.36425527 304.21415981 301.1003367 304.97270012 301.85872364 C307.41907846 304.30579195 309.8618718 306.75640689 312.3046875 309.20703125 C314.06604085 310.97030537 315.8276232 312.73335077 317.5894165 314.4961853 C321.3732428 318.28316531 325.15556827 322.07163467 328.93658447 325.86141968 C334.41138553 331.34882333 339.88946638 336.83294359 345.36842608 342.31619465 C354.27016499 351.22498869 363.17003323 360.13564883 372.06835938 369.04785156 C372.86589162 369.84662553 372.86589162 369.84662553 373.67953563 370.66153634 C377.9929988 374.98174348 382.30637106 379.30204138 386.61973953 383.62234306 C390.39033072 387.3989873 394.16095822 391.17559527 397.93164062 394.95214844 C398.46267482 395.48401075 398.99370901 396.01587307 399.54083514 396.56385243 C408.40767824 405.44440006 417.27649924 414.32296987 426.14672279 423.20014095 C431.60933304 428.66722082 437.07016328 434.13606706 442.52867556 439.60723853 C446.71350756 443.80152284 450.90090271 447.99324168 455.08922577 452.18404007 C456.80252189 453.89920455 458.51495515 455.61523145 460.22644806 457.33219528 C462.56807693 459.68107178 464.91280864 462.02680827 467.25830078 464.37182617 C467.92991179 465.04703214 468.60152279 465.7222381 469.29348564 466.41790485 C473.14644078 470.26256022 477.10903947 473.91976851 481.23914242 477.4656449 C483.80305729 479.69975849 486.18772264 482.06819195 488.58984375 484.47631836 C489.08844406 484.97477264 489.58704437 485.47322693 490.10075378 485.98678589 C491.71539024 487.60210785 493.32647548 489.22092018 494.9375 490.83984375 C496.06927864 491.97349143 497.2012812 493.10691559 498.33349609 494.24012756 C501.28822011 497.19863851 504.23992653 500.16014181 507.190979 503.12231445 C510.21271471 506.15434725 513.23734394 509.18349067 516.26171875 512.21289062 C522.17728805 518.13912967 528.08966729 524.06853842 534 530 C532.68197728 532.91464695 531.2631206 534.98642454 529.0039978 537.24324036 C528.39016235 537.86127029 527.7763269 538.47930023 527.14389038 539.11605835 C526.13559677 540.1159227 526.13559677 540.1159227 525.10693359 541.13598633 C524.39772766 541.84709061 523.68852173 542.55819489 522.95782471 543.29084778 C520.60955522 545.64282451 518.25415515 547.98751637 515.8984375 550.33203125 C514.26099794 551.96827824 512.62392838 553.60489557 510.98721313 555.24186707 C507.55201471 558.67550039 504.11348082 562.10574616 500.67236328 565.53344727 C496.27599024 569.91289091 491.88616741 574.29882718 487.49863243 578.6871233 C484.11531907 582.07016367 480.72939702 585.45058292 477.34260941 588.83014488 C475.72420741 590.44537815 474.10639852 592.06120592 472.48920822 593.67765236 C470.21844446 595.94622998 467.94440601 598.21147395 465.66943359 600.47583008 C465.00938324 601.13633362 464.34933289 601.79683716 463.66928101 602.47735596 C460.60024198 605.52564301 457.49129728 608.47415258 454.20788383 611.29127502 C450.28915321 614.70557719 446.58121974 618.28089629 442.91595459 621.96379089 C442.24727812 622.63161311 441.57860166 623.29943533 440.88966227 623.98749459 C438.66071632 626.21480269 436.43535085 628.44565302 434.20996094 630.67651367 C432.59205157 632.29470322 430.97392035 633.91267099 429.35558701 635.53043652 C424.91744451 639.96828388 420.48242053 644.40923634 416.04789543 648.85069799 C411.75348847 653.15082925 407.45671431 657.44859266 403.15997946 661.74639764 C394.3720346 670.53667418 385.58634793 679.32920438 376.80187988 688.12295532 C364.80403907 700.13341372 352.80290584 712.14057819 340.80089712 724.14687145 C335.20607181 729.74370282 329.61140726 735.34069488 324.01678467 740.93772888 C323.45676649 741.49798808 322.8967483 742.05824727 322.31975988 742.63548402 C308.9971919 755.96386033 295.67619869 769.29381019 282.35546875 782.62402344 C281.77279958 783.20710626 281.1901304 783.79018907 280.58980459 784.39094107 C271.72647544 793.26056647 262.86322843 802.13027395 254 811 C244.54822368 820.45870541 235.09641714 829.91738064 225.64453125 839.37597656 C225.06217805 839.95874435 224.47982485 840.54151214 223.87982458 841.14193957 C210.58172634 854.44948794 197.28317725 867.75658534 183.98321533 881.06227112 C183.42409526 881.62163218 182.86497519 882.18099325 182.28891209 882.75730465 C176.7067106 888.34189161 171.12443034 893.92639981 165.5420325 899.51079049 C153.55406548 911.50307188 141.5674788 923.49672829 129.5836879 935.49318293 C120.84864925 944.2374103 112.11189325 952.97991853 103.37334728 961.7206409 C98.6399609 966.45531656 93.90746959 971.19087837 89.17713928 975.92860794 C84.84672818 980.26576718 80.51401732 984.60061513 76.17947054 988.93364108 C74.61207581 990.50130723 73.04553147 992.06982417 71.47992659 993.63927782 C69.35028 995.77391638 67.21755132 997.9054288 65.08404541 1000.03620911 C64.47844489 1000.64472249 63.87284436 1001.25323588 63.24889231 1001.88018906 C59.55322533 1005.56312158 55.73135761 1009.04775325 51.77524912 1012.4497025 C49.28312765 1014.6260335 46.95311966 1016.94240468 44.62548828 1019.29272461 C44.1496077 1019.77167175 43.67372711 1020.2506189 43.1834259 1020.74407959 C42.16805808 1021.76650977 41.1538316 1022.79007454 40.14068985 1023.81471062 C38.53768243 1025.43533237 36.93096443 1027.05219261 35.32321167 1028.66810608 C30.75898035 1033.25661814 26.20068102 1037.85099178 21.64648438 1042.44946289 C18.84691951 1045.27572958 16.04256668 1048.09717041 13.23516464 1050.91565132 C12.16871037 1051.98832208 11.10415845 1053.06288759 10.04153824 1054.13935661 C8.56488797 1055.63511467 7.08227947 1057.12471083 5.59814453 1058.61303711 C4.75623566 1059.46240341 3.91432678 1060.31176971 3.04690552 1061.18687439 C1 1063 1 1063 -1 1063 C-1.02896488 891.8274437 -1.02896488 891.8274437 -1.04234314 759.29893494 C-1.04248259 757.78681048 -1.04262204 756.27468602 -1.04276149 754.76256156 C-1.04568397 723.0250128 -1.04840071 691.28746401 -1.05087968 659.54991521 C-1.0521251 643.60788861 -1.05341008 627.66586202 -1.05473244 611.72383543 C-1.05493169 609.31899054 -1.05512981 606.91414564 -1.05532788 604.50930074 C-1.05838907 567.46337391 -1.06230017 530.41744742 -1.06866455 493.371521 C-1.06880145 492.57456315 -1.06893835 491.77760531 -1.0690794 490.95649723 C-1.07129186 478.10658663 -1.07357543 465.25667604 -1.07586844 452.40676545 C-1.08246923 415.41016396 -1.08854712 378.41356273 -1.09113979 341.41696072 C-1.09119333 340.65669271 -1.09124686 339.89642471 -1.09130202 339.11311828 C-1.09246759 322.42628711 -1.09336253 305.73945594 -1.09400098 289.05262474 C-1.09426262 282.33913933 -1.09456324 275.62565392 -1.09487724 268.9121685 C-1.09491067 268.17739146 -1.0949441 267.44261442 -1.09497854 266.68557141 C-1.09607626 242.98270928 -1.10035168 219.27984901 -1.10628221 195.57698763 C-1.11240364 171.05171902 -1.11501716 146.52645247 -1.11350138 122.0011831 C-1.11273768 107.84639867 -1.1147962 93.69162102 -1.12079754 79.53683781 C-1.124527 70.10038024 -1.12467818 60.66392715 -1.12183181 51.22746928 C-1.12031139 45.83861053 -1.12042992 40.44976466 -1.12488318 35.06090725 C-1.12889457 30.16999112 -1.12840451 25.27909807 -1.12413998 20.38818234 C-1.12341879 18.61880945 -1.12441663 16.84943493 -1.12723524 15.08006414 C-1.13079288 12.69793825 -1.12831967 10.31589664 -1.1241985 7.93377358 C-1.12670737 7.23615547 -1.12921625 6.53853736 -1.13180115 5.81977931 C-1.11415501 1.11415501 -1.11415501 1.11415501 0 0 Z " fill="#000000" transform="translate(468,319)"/>
<path d="M0 0 C7.8749546 6.74996109 7.8749546 6.74996109 10.88437557 9.76412106 C11.57264146 10.45101259 12.26090734 11.13790413 12.97002977 11.84561056 C13.70291784 12.58209359 14.43580591 13.31857662 15.19090271 14.07737732 C16.38584645 15.27209777 16.38584645 15.27209777 17.60493046 16.49095398 C20.26170627 19.14842177 22.91489512 21.80944154 25.56811523 24.47045898 C27.47710321 26.38136702 29.38629263 28.29207172 31.29574585 30.20251465 C35.40166847 34.31131688 39.50581245 38.42188869 43.60879326 42.53362846 C49.54913438 48.48655681 55.49274181 54.43621553 61.43723191 60.38500047 C71.09378384 70.048612 80.74846585 79.71408926 90.40161133 89.38110352 C90.97872421 89.95904421 91.5558371 90.53698491 92.15043826 91.13243897 C96.83207298 95.82081717 101.51361697 100.50928597 106.1951561 105.19775963 C110.28606774 109.29472367 114.37701528 113.39165187 118.46801758 117.48852539 C119.04411943 118.06545537 119.62022127 118.64238534 120.21378075 119.23679804 C129.83092197 128.86764082 139.45003867 138.49650817 149.07055813 148.12397629 C154.9975812 154.05547133 160.9228235 159.98873457 166.84575368 165.92431665 C170.90607968 169.99308996 174.96819082 174.06007525 179.03169065 178.12567883 C181.37320832 180.46853682 183.71361296 182.81247887 186.05235863 185.15810585 C188.593292 187.70627854 191.13732117 190.25132115 193.68211365 192.79563904 C194.412771 193.52989135 195.14342834 194.26414366 195.89622682 195.02064604 C199.84483391 198.96139819 203.89757822 202.70559016 208.12085289 206.34958571 C210.9645238 208.84712041 213.64502297 211.49365574 216.32167053 214.16777039 C216.90499238 214.74670998 217.48831423 215.32564957 218.08931249 215.92213279 C220.0176789 217.83728386 221.94258204 219.75587539 223.86743164 221.67456055 C225.25920629 223.05842167 226.65115853 224.44210421 228.04327393 225.82562256 C232.58595057 230.34226232 237.1233382 234.86419537 241.66015625 239.38671875 C243.22530388 240.94650248 244.79045831 242.50627939 246.35561943 244.06604958 C252.85967169 250.54851593 259.36230146 257.03240361 265.86121464 263.52002239 C275.1693318 272.81185216 284.48587295 282.09505078 293.81419283 291.36659974 C300.38011279 297.8939144 306.93650942 304.4306967 313.4858045 310.97469169 C317.3969394 314.88216538 321.31218631 318.78530515 325.23762703 322.67841148 C328.92161125 326.33247474 332.59372022 329.99805504 336.2568512 333.67301941 C337.60583375 335.02222392 338.95913756 336.36712311 340.3169384 337.70745277 C342.16339524 339.53142617 343.99395372 341.36997508 345.82118225 343.21318054 C346.64030164 344.0114768 346.64030164 344.0114768 347.4759689 344.82590026 C348.94334507 346.32531261 348.94334507 346.32531261 351 349 C350.85288772 352.22474292 349.59797359 353.77522692 347.35131836 356.00512695 C346.51926125 356.84168571 346.51926125 356.84168571 345.6703949 357.69514465 C344.76427208 358.58274727 344.76427208 358.58274727 343.83984375 359.48828125 C343.21654678 360.10970505 342.59324982 360.73112885 341.95106506 361.37138367 C340.62882752 362.68689914 339.30299728 363.99881192 337.97387695 365.30737305 C335.96254611 367.28783825 333.96180606 369.27849677 331.96289062 371.27148438 C330.67248927 372.5527023 329.38149161 373.83331999 328.08984375 375.11328125 C327.49993149 375.69894363 326.91001923 376.28460602 326.30223083 376.88801575 C323.47268527 379.67042815 320.60697615 382.35504086 317.57784939 384.91917515 C311.50593958 390.2169878 305.88598474 395.9829093 300.19996643 401.68650818 C298.90705231 402.97970261 297.61391607 404.272675 296.32057804 405.56544548 C292.78104672 409.10468225 289.24463088 412.64701757 285.70872128 416.18987215 C281.88991684 420.01506543 278.06819535 423.83734234 274.24681091 427.65995789 C267.63083535 434.27881656 261.01663757 440.89944742 254.40359688 447.52123833 C244.84171505 457.09567969 235.27659062 466.66687639 225.71057808 476.23719049 C210.18884021 491.76599102 194.66897239 507.29665898 179.15063477 522.82885742 C178.22234928 523.75797072 177.29406379 524.68708402 176.33764844 525.64435226 C169.74588364 532.24201957 163.15418507 538.83975304 156.5625 545.4375 C149.02063808 552.98629559 141.47874122 560.53505627 133.93676758 568.08374023 C133.00749215 569.01384379 132.07821672 569.94394735 131.12078143 570.90223586 C115.65128924 586.38539227 100.17984983 601.86660151 84.70700783 617.34641033 C75.15849473 626.89941383 65.61176972 636.45419773 56.06731098 646.01125199 C49.53730874 652.54965127 43.00556526 659.08630752 36.47242094 665.62156724 C32.69788332 669.39745567 28.92419812 673.17418657 25.152668 676.95307922 C21.70648532 680.40596433 18.2580549 683.85658724 14.80775427 687.30535734 C13.55407651 688.55930862 12.30126205 689.81412367 11.04935832 691.06984609 C9.35962077 692.76450205 7.66689472 694.4561127 5.97332096 696.14693356 C5.47767898 696.6454884 4.98203699 697.14404325 4.47137555 697.65770581 C1.11414143 701 1.11414143 701 0 701 C0 469.67 0 238.34 0 0 Z " fill="#FEFEFE" transform="translate(541,501)"/>
<path d="M0 0 C0 348.15 0 696.3 0 1055 C-4.5371643 1053.86570892 -5.59865413 1052.69696014 -8.75 1049.375 C-12.30769699 1045.64515638 -15.99081579 1042.2238903 -19.88964844 1038.85205078 C-23.43058225 1035.74451678 -26.83339447 1032.49285305 -30.25 1029.25 C-36.1571238 1023.66662461 -42.09677835 1018.12677482 -48.1015625 1012.6484375 C-51.78657563 1009.28126917 -55.45084007 1005.89192286 -59.11035156 1002.49707031 C-59.60245117 1002.04170898 -60.09455078 1001.58634766 -60.6015625 1001.1171875 C-61.08716141 1000.65356848 -61.57276032 1000.18994946 -62.07307435 999.71228137 C-64.03268385 997.91358021 -64.03268385 997.91358021 -66.47557061 996.2083031 C-70.35867555 993.21861052 -73.44908079 990.78160207 -74.92843474 985.99756109 C-75.27898815 982.40019236 -75.31631617 978.91896559 -75.24609566 975.30496883 C-75.25521184 973.91986996 -75.2687133 972.53479431 -75.28617692 971.14977553 C-75.32147414 967.34514787 -75.2946351 963.54312053 -75.25760114 959.73860331 C-75.22836478 955.59954084 -75.25726157 951.46081598 -75.2787751 947.32176262 C-75.30847484 940.06843399 -75.30109312 932.81587823 -75.26943016 925.56256866 C-75.22251733 914.7773528 -75.23290525 903.99272414 -75.25505381 893.20745615 C-75.29068706 875.06503567 -75.27982102 856.9229209 -75.24249649 838.78051567 C-75.20568993 820.81609945 -75.18952451 802.85186017 -75.20095444 784.8874073 C-75.20165339 783.77063046 -75.20235234 782.65385361 -75.20307247 781.50323504 C-75.20672953 775.83173924 -75.21075565 770.16024376 -75.21492384 764.48874832 C-75.24378682 724.31267654 -75.22632742 684.13674501 -75.18164062 643.96069336 C-75.13833275 604.92909944 -75.11599824 565.89758565 -75.12207031 526.8659668 C-75.12224911 525.66294147 -75.1224279 524.45991614 -75.12261211 523.2204355 C-75.1244308 511.13921165 -75.12667601 499.05798792 -75.12923372 486.97676421 C-75.13443441 462.36569963 -75.13678821 437.75463505 -75.13742065 413.14356995 C-75.13745324 412.01198148 -75.13748583 410.88039302 -75.13751941 409.714514 C-75.13936949 334.14298628 -75.07485473 258.57148586 -75 183 C-75.43324585 183.43546646 -75.8664917 183.87093292 -76.31286621 184.31959534 C-80.85261951 188.88159869 -85.39598935 193.43997767 -89.94140625 197.99633789 C-91.63372911 199.69366667 -93.3251505 201.39189477 -95.015625 203.09106445 C-97.45592369 205.54359341 -99.89952506 207.99279096 -102.34375 210.44140625 C-103.08991577 211.19273331 -103.83608154 211.94406036 -104.6048584 212.71815491 C-108.6796266 216.79335049 -112.85009209 220.67957923 -117.21514651 224.44170099 C-119.56240668 226.49101945 -121.77269406 228.65481786 -123.97125626 230.86217499 C-124.87646712 231.76847829 -125.78167798 232.6747816 -126.71431947 233.60854864 C-127.69421076 234.59474504 -128.6740593 235.58098391 -129.65386963 236.56726074 C-130.7136474 237.63018789 -131.77365728 238.69288366 -132.83387733 239.75536966 C-135.12672031 242.05409467 -137.41794392 244.35441734 -139.70791626 246.65600204 C-143.43450788 250.40147219 -147.16464062 254.14340323 -150.89520264 257.88491821 C-155.60897313 262.61305225 -160.32178987 267.34213361 -165.03348491 272.0723359 C-174.282855 281.35801759 -183.53845632 290.63746567 -192.79632568 299.91467285 C-194.25484143 301.37629889 -195.71335349 302.83792861 -197.17186189 304.29956198 C-199.38168084 306.51410632 -201.5915034 308.72864706 -203.80134065 310.94317314 C-212.12120356 319.28073966 -220.44037145 327.61899931 -228.75878906 335.95800781 C-229.51881319 336.71990899 -230.27883732 337.48181018 -231.06189248 338.26679927 C-243.40247238 350.63832896 -255.73567408 363.01719187 -268.06665733 375.39828581 C-280.72747504 388.11011824 -293.39777261 400.81244687 -306.07657218 413.50634432 C-313.89803657 421.3377933 -321.71168832 429.17687795 -329.51559493 437.02582377 C-334.85581645 442.395518 -340.20504009 447.7561313 -345.56156662 453.10956031 C-348.65505653 456.20182715 -351.74424081 459.2981092 -354.82273865 462.40530777 C-357.63700189 465.2456416 -360.46239266 468.07437391 -363.29734585 470.89405304 C-364.32444312 471.91972271 -365.34726039 472.94969867 -366.36546233 473.98419946 C-367.74284182 475.38240949 -369.13701348 476.76401948 -370.53210831 478.14455414 C-371.30392008 478.91880659 -372.07573185 479.69305903 -372.87093186 480.49077368 C-375 482 -375 482 -377.12579703 481.87186384 C-380.05960922 480.50707849 -381.95533207 478.4017893 -384.22753906 476.11303711 C-384.73530884 475.60570541 -385.24307861 475.09837372 -385.76623535 474.57566833 C-387.43990925 472.89990733 -389.10271128 471.21377731 -390.765625 469.52734375 C-391.92510527 468.36226727 -393.08525042 467.19785214 -394.24603271 466.03407288 C-397.29732787 462.97133103 -400.33950625 459.89968669 -403.37988281 456.82611084 C-406.4847856 453.69050356 -409.5982131 450.56338633 -412.7109375 447.43554688 C-418.81567432 441.29864898 -424.91080744 435.15232143 -431 429 C-426.99852837 424.20468592 -422.82030119 419.67680926 -418.39631081 415.27046967 C-417.75526763 414.62797305 -417.11422446 413.98547644 -416.45375574 413.32351023 C-414.31150445 411.17761822 -412.16572168 409.03529366 -410.01992798 406.89294434 C-408.46518977 405.33705355 -406.91066957 403.7809449 -405.3563484 402.22463751 C-401.08920589 397.95332046 -396.81894996 393.68512801 -392.54817152 389.41744685 C-388.41429543 385.28559993 -384.28276707 381.15140767 -380.15116205 377.01729001 C-371.18021681 368.04108213 -362.20641598 359.06773339 -353.23139452 350.09560139 C-345.37654357 342.24326683 -337.52262372 334.39000247 -329.66962814 326.53581238 C-329.14854884 326.01465669 -328.62746954 325.49350101 -328.09059996 324.95655273 C-325.97531434 322.84095577 -323.86003226 320.72535528 -321.74475598 318.60974898 C-301.90408494 298.76601935 -282.06049958 278.92520631 -262.21560783 259.08569773 C-244.5898564 241.46469115 -226.96669087 223.84110228 -209.34570312 206.21533203 C-189.54378543 186.40805786 -169.7402507 166.60240273 -149.93411005 146.79935122 C-147.82207131 144.6876332 -145.71003652 142.57591124 -143.59800339 140.46418762 C-143.07797404 139.94423735 -142.5579447 139.42428709 -142.02215689 138.88858075 C-134.17418666 131.04174731 -126.32744971 123.19368204 -118.4813118 115.34501648 C-109.55782427 106.41866854 -100.63254939 97.49411207 -91.70492055 88.57190597 C-87.14983171 84.01944533 -82.59554626 79.46618864 -78.04342461 74.91076088 C-73.87577667 70.74013186 -69.70582465 66.57182105 -65.5340281 62.40534192 C-64.02580188 60.89823214 -62.51841643 59.39028039 -61.01196177 57.88139981 C-58.9620671 55.82845767 -56.90910635 53.77862978 -54.85537148 51.72953033 C-54.27326444 51.14508213 -53.6911574 50.56063393 -53.09141076 49.95847517 C-49.43687983 46.32037481 -45.64943941 42.88350566 -41.74250694 39.51775172 C-39.617771 37.66707236 -37.61480844 35.72168091 -35.63525391 33.71704102 C-34.88152496 32.95678116 -34.12779602 32.1965213 -33.35122681 31.41322327 C-32.56758759 30.61814865 -31.78394836 29.82307404 -30.9765625 29.00390625 C-29.28007702 27.29479372 -27.58345868 25.58581305 -25.88671875 23.87695312 C-23.2381758 21.20344258 -20.59126925 18.528348 -17.94677734 15.85083008 C-15.37767719 13.25171376 -12.80254626 10.65869771 -10.2265625 8.06640625 C-9.43077789 7.25716202 -8.63499329 6.44791779 -7.81509399 5.614151 C-7.08027802 4.87595627 -6.34546204 4.13776154 -5.58837891 3.37719727 C-4.94188385 2.72324478 -4.29538879 2.0692923 -3.62930298 1.39552307 C-2 0 -2 0 0 0 Z " fill="#000000" transform="translate(1423,323)"/>
<path d="M0 0 C44.06762295 0 44.06762295 0 54.16015625 8.90625 C60.35023862 15.28731494 62.97492974 21.71479225 63.375 30.5625 C63.01835908 39.00300172 59.73517658 45.863084 54 52 C51.10046618 54.48631523 48.94405821 56 45 56 C45 56.66 45 57.32 45 58 C45.88534424 58.39940796 45.88534424 58.39940796 46.78857422 58.80688477 C53.52163056 62.43952402 57.8436903 69.28470936 61.875 75.5625 C62.38820801 76.34681396 62.90141602 77.13112793 63.43017578 77.93920898 C64.96286196 80.28686469 66.48327972 82.64200554 68 85 C68.43699219 85.67675781 68.87398437 86.35351562 69.32421875 87.05078125 C71.22965614 90.00210541 73.12770027 92.95789077 75.01953125 95.91796875 C77.62934328 99.97939221 80.30021347 103.99796349 83 108 C68.19371728 110.19895288 68.19371728 110.19895288 63.21289062 106.76953125 C59.31066407 102.76344315 56.6771702 97.86758218 54 93 C52.84515691 91.02190716 51.67492785 89.05355785 50.50317383 87.08544922 C49.75565339 85.82788074 49.01450538 84.5665008 48.2800293 83.30126953 C43.66742684 75.47552176 37.29196942 67.14598471 29 63 C24.71 62.67 20.42 62.34 16 62 C16 77.18 16 92.36 16 108 C10.72 108 5.44 108 0 108 C0 72.36 0 36.72 0 0 Z " fill="#070707" transform="translate(594,1480)"/>
<path d="M0 0 C2.83203125 0.03255208 5.6640625 0.06510417 8.49609375 0.09765625 C13.6280853 10.03400088 18.24118888 20.13596452 22.68984985 30.39343262 C24.63781452 34.88439479 26.59761041 39.37017874 28.55859375 43.85546875 C28.96189407 44.7781958 29.3651944 45.70092285 29.78071594 46.65161133 C32.64527367 53.1912182 35.55580741 59.70895951 38.49609375 66.21484375 C38.90192184 67.11302826 39.30774994 68.01121277 39.72587585 68.93661499 C41.6680768 73.23102651 43.61593803 77.52279415 45.56958008 81.81201172 C49.50751002 90.48597705 53.18099476 99.16186881 56.49609375 108.09765625 C51.21609375 108.09765625 45.93609375 108.09765625 40.49609375 108.09765625 C35.87609375 97.86765625 31.25609375 87.63765625 26.49609375 77.09765625 C11.31609375 76.76765625 -3.86390625 76.43765625 -19.50390625 76.09765625 C-20.49390625 79.06765625 -21.48390625 82.03765625 -22.50390625 85.09765625 C-23.30029438 87.08020695 -24.12391367 89.05221856 -24.984375 91.0078125 C-25.42587891 92.01650391 -25.86738281 93.02519531 -26.32226562 94.06445312 C-26.77408203 95.08603516 -27.22589844 96.10761719 -27.69140625 97.16015625 C-28.15482422 98.21654297 -28.61824219 99.27292969 -29.09570312 100.36132812 C-30.22824467 102.94165473 -31.36558216 105.51987543 -32.50390625 108.09765625 C-37.78390625 108.09765625 -43.06390625 108.09765625 -48.50390625 108.09765625 C-44.83296996 98.31564863 -40.83180369 88.72089009 -36.68844604 79.13204956 C-34.71771019 74.57090049 -32.75489283 70.0063513 -30.79296875 65.44140625 C-30.37532761 64.46981064 -29.95768646 63.49821503 -29.52738953 62.49717712 C-26.14451053 54.61565321 -22.79908589 46.71861409 -19.46484375 38.81640625 C-18.96240646 37.62596207 -18.45996918 36.43551788 -17.94230652 35.20899963 C-15.94451073 30.47392923 -13.94751554 25.73853102 -11.95510864 21.00119019 C-10.56580542 17.69787073 -9.1737195 14.3957357 -7.78125 11.09375 C-7.36229462 10.09472656 -6.94333923 9.09570312 -6.51168823 8.06640625 C-6.12876617 7.15947021 -5.74584412 6.25253418 -5.35131836 5.31811523 C-5.01700302 4.52324203 -4.68268768 3.72836884 -4.33824158 2.90940857 C-3.05326014 0.11908191 -3.05326014 0.11908191 0 0 Z " fill="#040404" transform="translate(502.50390625,1479.90234375)"/>
<path d="M0 0 C4.95 0 9.9 0 15 0 C15 14.52 15 29.04 15 44 C33.15 44 51.3 44 70 44 C70 29.48 70 14.96 70 0 C74.95 0 79.9 0 85 0 C85 35.64 85 71.28 85 108 C80.38 108 75.76 108 71 108 C71 91.17 71 74.34 71 57 C52.19 57 33.38 57 14 57 C14 73.83 14 90.66 14 108 C9.38 108 4.76 108 0 108 C0 72.36 0 36.72 0 0 Z " fill="#060606" transform="translate(840,1480)"/>
<path d="M0 0 C0 5.28 0 10.56 0 16 C-5.28550215 14.23816595 -10.41572164 12.2818045 -15.5859375 10.21875 C-27.41443996 5.99621823 -41.82596679 4.3949307 -53.75 9.125 C-64.36311764 14.44650687 -72.52003074 21.85751236 -77 33 C-80.35623727 44.80835632 -78.62040018 58.63996343 -72.75 69.26171875 C-67.27724908 77.42420236 -58.68972117 82.56022225 -49.40625 85.34765625 C-33.19502777 88.4523284 -18.71738689 84.68641775 -4 78 C-2.35 77.34 -0.7 76.68 1 76 C1 81.28 1 86.56 1 92 C-11.34763015 98.83868747 -22.69559981 101.3494876 -36.6875 101.4375 C-37.72011963 101.4475708 -38.75273926 101.4576416 -39.81665039 101.46801758 C-55.6592941 101.29037839 -68.29882668 96.1822848 -79.78125 85.28125 C-91.49907068 73.23334986 -95.43042452 59.30896114 -95.36352539 42.86743164 C-95.22599265 35.88382457 -94.32700054 30.222178 -91 24 C-90.49082031 22.99710938 -89.98164062 21.99421875 -89.45703125 20.9609375 C-81.3810878 6.06571915 -68.83797799 -2.79575322 -52.75 -7.68359375 C-34.35159069 -12.1899609 -16.82249617 -7.57012327 0 0 Z " fill="#040404" transform="translate(1328,1487)"/>
<path d="M0 0 C0 5.28 0 10.56 0 16 C-5.28550215 14.23816595 -10.41572164 12.2818045 -15.5859375 10.21875 C-27.41443996 5.99621823 -41.82596679 4.3949307 -53.75 9.125 C-64.36311764 14.44650687 -72.52003074 21.85751236 -77 33 C-80.35623727 44.80835632 -78.62040018 58.63996343 -72.75 69.26171875 C-67.27724908 77.42420236 -58.68972117 82.56022225 -49.40625 85.34765625 C-33.19502777 88.4523284 -18.71738689 84.68641775 -4 78 C-2.35 77.34 -0.7 76.68 1 76 C1 81.28 1 86.56 1 92 C-11.34763015 98.83868747 -22.69559981 101.3494876 -36.6875 101.4375 C-37.72011963 101.4475708 -38.75273926 101.4576416 -39.81665039 101.46801758 C-55.6592941 101.29037839 -68.29882668 96.1822848 -79.78125 85.28125 C-91.49907068 73.23334986 -95.43042452 59.30896114 -95.36352539 42.86743164 C-95.22599265 35.88382457 -94.32700054 30.222178 -91 24 C-90.49082031 22.99710938 -89.98164062 21.99421875 -89.45703125 20.9609375 C-81.3810878 6.06571915 -68.83797799 -2.79575322 -52.75 -7.68359375 C-34.35159069 -12.1899609 -16.82249617 -7.57012327 0 0 Z " fill="#040404" transform="translate(792,1487)"/>
<path d="M0 0 C20.13 0 40.26 0 61 0 C61 4.29 61 8.58 61 13 C45.82 13 30.64 13 15 13 C15 23.89 15 34.78 15 46 C29.52 46 44.04 46 59 46 C59 50.62 59 55.24 59 60 C44.48 60 29.96 60 15 60 C15 70.89 15 81.78 15 93 C30.51 93 46.02 93 62 93 C62 97.62 62 102.24 62 107 C41.54 107 21.08 107 0 107 C0 71.69 0 36.38 0 0 Z " fill="#020202" transform="translate(1143,1482)"/>
<path d="M0 0 C29.7 0 59.4 0 90 0 C90 4.62 90 9.24 90 14 C77.46 14 64.92 14 52 14 C52 45.02 52 76.04 52 108 C47.05 108 42.1 108 37 108 C37 76.98 37 45.96 37 14 C24.79 14 12.58 14 0 14 C0 9.38 0 4.76 0 0 Z " fill="#030303" transform="translate(1350,1481)"/>
<path d="M0 0 C29.7 0 59.4 0 90 0 C90 4.62 90 9.24 90 14 C77.46 14 64.92 14 52 14 C52 45.02 52 76.04 52 108 C47.05 108 42.1 108 37 108 C37 76.98 37 45.96 37 14 C24.79 14 12.58 14 0 14 C0 9.38 0 4.76 0 0 Z " fill="#030303" transform="translate(1024,1480)"/>
<path d="M0 0 C4.95 0 9.9 0 15 0 C15 35.31 15 70.62 15 107 C10.05 107 5.1 107 0 107 C0 71.69 0 36.38 0 0 Z " fill="#000000" transform="translate(980,1481)"/>
<path d="M0 0 C18.94333765 -0.44398448 18.94333765 -0.44398448 25 3 C28.74729294 6.84590591 31.27124726 10.81255741 31.4375 16.25 C31.30197475 21.39148935 29.59227913 25.31297944 26 29 C20.28823832 33.13082765 15.98295486 33.52150817 9.0625 33.25 C6.071875 33.1675 3.08125 33.085 0 33 C0 22.11 0 11.22 0 0 Z " fill="#FCFCFC" transform="translate(610,1494)"/>
<path d="M0 0 C2.8763988 3.43861639 4.59308029 7.24064007 6.35546875 11.3203125 C6.66196854 12.0201828 6.96846832 12.7200531 7.28425598 13.44113159 C7.92795221 14.91424261 8.56907369 16.38848108 9.20776367 17.86376953 C10.18838357 20.12703928 11.1785188 22.38596734 12.16992188 24.64453125 C12.79483835 26.0778777 13.4192066 27.51146333 14.04296875 28.9453125 C14.3397905 29.62240265 14.63661224 30.2994928 14.94242859 30.99710083 C17 35.76909215 17 35.76909215 17 38 C6.44 38 -4.12 38 -15 38 C-14.12001062 33.6000531 -12.83772684 29.88184101 -11.09375 25.80078125 C-10.80898804 25.12452194 -10.52422607 24.44826263 -10.23083496 23.75151062 C-9.32492609 21.6032971 -8.41248645 19.45792659 -7.5 17.3125 C-6.88630411 15.85889895 -6.27301851 14.4051246 -5.66015625 12.95117188 C-1.22780155 2.45560311 -1.22780155 2.45560311 0 0 Z " fill="#FAFAFA" transform="translate(505,1504)"/>
</svg>
